# This file uses centimeters as units for non-parametric coordinates.

mtllib hull_test_A.mtl
g default
v -12.294718 -3.039415 49.823082
v 12.294718 -3.039415 49.823082
v -12.294718 3.039415 49.823082
v 12.294718 3.039415 49.823082
v -12.294718 3.039415 -64.176353
v 12.294718 3.039415 -64.176353
v -12.294718 -3.039415 -64.176353
v 12.294718 -3.039415 -64.176353
v 7.022801 3.039415 -34.100136
v -7.022801 3.039415 -34.100136
v -7.022801 -3.039415 -34.100136
v 7.022801 -3.039415 -34.100136
v 7.022801 3.039415 -19.088875
v -7.022801 3.039415 -19.088875
v -7.022801 -3.039415 -19.088875
v 7.022801 -3.039415 -19.088875
v 12.294718 3.039415 -12.106400
v -12.294718 3.039415 -12.106400
v -12.294718 -3.039415 -12.106400
v 12.294718 -3.039415 -12.106400
v 12.294718 3.039415 -41.274639
v -12.294718 3.039415 -41.274639
v -12.294718 -3.039415 -41.274639
v 12.294718 -3.039415 -41.274639
v -8.584597 7.632256 43.122681
v 8.584597 7.632256 43.122681
v 8.584597 7.632257 -3.351206
v -8.584597 7.632257 -3.351206
v -8.584597 -7.632257 -3.351206
v 8.584597 -7.632257 -3.351206
v 8.584597 -7.632256 43.122681
v -8.584597 -7.632256 43.122681
v 0.000000 4.999999 -64.176353
v 0.000000 -4.999999 -64.176353
v 0.000000 -4.999999 -41.274639
v 0.000000 -4.351646 -34.100136
v 0.000000 -10.927393 -3.351206
v 0.000000 -10.927391 43.122681
v 0.000000 -4.351646 56.623768
v 0.000000 4.351646 56.623768
v 0.000000 10.927391 43.122681
v 0.000000 10.927393 -3.351206
v 0.000000 4.351646 -12.106400
v 0.000000 4.351646 -19.088875
v 0.000000 4.351646 -34.100136
v 0.000000 4.999999 -39.184856
v 1.588995 4.999999 -41.274639
v 1.588995 4.999999 -64.176353
v -1.588995 4.999999 -64.176353
v -1.588995 4.999999 -41.274639
v 0.000000 30.873310 -48.394608
v -1.588995 31.149063 -50.484386
v 0.000000 32.723507 -64.176353
v -1.588995 32.723507 -64.176353
v 1.588995 31.149063 -50.484386
v 1.588995 32.723507 -64.176353
v 1.588995 28.388153 -64.176353
v -1.588995 28.388153 -64.176353
v 0.000000 28.388153 -64.176353
v 1.588995 26.442184 -62.068233
v -1.588995 26.442184 -62.068233
v 0.000000 26.442184 -62.068233
v 1.588995 7.306840 -64.176353
v -1.588995 7.306840 -64.176353
v 0.000000 7.306840 -64.176353
v 1.588995 9.090643 -62.068233
v -1.588995 9.090643 -62.068233
v 0.000000 9.090643 -62.068233
v 2.669211 -3.979786 -12.106400
v 2.669211 -3.979786 -34.100136
v -2.669211 -3.979786 -12.106400
v -2.669211 -3.979786 -34.100140
v -1.209146 -49.800507 -15.815980
v 0.000001 -50.172367 -15.815976
v 0.000001 -50.172363 6.177760
v -1.209146 -49.800507 6.177760
v 1.209147 -49.800507 -15.815976
v 1.209147 -49.800507 6.177760
v 8.584597 7.632256 20.151289
v 0.000000 10.927391 20.151289
v -8.584597 7.632256 20.151289
v -12.294718 3.039415 20.151394
v -12.294718 -3.039415 20.151394
v -8.584597 -7.632256 20.151289
v 0.000000 -10.927391 20.151289
v 8.584597 -7.632256 20.151289
v 12.294718 -3.039415 20.151394
v 12.294718 3.039415 20.151394
vt 0.375000 0.000000
vt 0.625000 0.000000
vt 0.375000 0.250000
vt 0.625000 0.250000
vt 0.375000 0.500000
vt 0.625000 0.500000
vt 0.375000 0.750000
vt 0.625000 0.750000
vt 0.375000 1.000000
vt 0.625000 1.000000
vt 0.875000 0.000000
vt 0.875000 0.250000
vt 0.125000 0.000000
vt 0.125000 0.250000
vt 0.625000 0.448644
vt 0.823644 0.250000
vt 0.176356 0.250000
vt 0.375000 0.448644
vt 0.176356 0.000000
vt 0.375000 0.801356
vt 0.625000 0.801356
vt 0.823644 0.000000
vt 0.625000 0.414459
vt 0.789459 0.250000
vt 0.210541 0.250000
vt 0.375000 0.414459
vt 0.210541 0.000000
vt 0.375000 0.835541
vt 0.625000 0.835541
vt 0.789459 0.000000
vt 0.625000 0.400600
vt 0.775600 0.250000
vt 0.224400 0.250000
vt 0.375000 0.400600
vt 0.224400 0.000000
vt 0.375000 0.849400
vt 0.625000 0.849400
vt 0.775600 0.000000
vt 0.625000 0.455112
vt 0.830112 0.250000
vt 0.169888 0.250000
vt 0.375000 0.455112
vt 0.169888 0.000000
vt 0.375000 0.794888
vt 0.625000 0.794888
vt 0.830112 0.000000
vt 0.375000 0.250000
vt 0.625000 0.250000
vt 0.625000 0.400600
vt 0.375000 0.400600
vt 0.375000 0.849400
vt 0.625000 0.849400
vt 0.625000 1.000000
vt 0.375000 1.000000
vt 0.500000 0.500000
vt 0.494102 0.750000
vt 0.491357 0.794888
vt 0.500000 0.801356
vt 0.500000 0.842471
vt 0.500000 0.849400
vt 0.500000 1.000000
vt 0.500000 0.000000
vt 0.500000 1.000000
vt 0.500000 0.250000
vt 0.500000 0.250000
vt 0.500000 0.400600
vt 0.500000 0.400600
vt 0.500000 0.414459
vt 0.500000 0.448644
vt 0.500000 0.455112
vt 0.538489 0.455112
vt 0.538283 0.500000
vt 0.459862 0.500000
vt 0.463139 0.455112
vt 0.463139 0.455112
vt 0.500000 0.455112
vt 0.500000 0.500000
vt 0.459862 0.500000
vt 0.538489 0.455112
vt 0.538283 0.500000
vt 0.538283 0.500000
vt 0.459862 0.500000
vt 0.500000 0.500000
vt 0.538283 0.500000
vt 0.459862 0.500000
vt 0.500000 0.500000
vt 0.538283 0.500000
vt 0.459862 0.500000
vt 0.500000 0.500000
vt 0.538283 0.500000
vt 0.459862 0.500000
vt 0.500000 0.500000
vt 0.517889 0.842471
vt 0.526606 0.801356
vt 0.473554 0.842471
vt 0.476336 0.801356
vt 0.476336 0.801356
vt 0.500000 0.801356
vt 0.473554 0.842471
vt 0.526606 0.801356
vt 0.517889 0.842471
vt 0.625000 0.323135
vt 0.500000 0.323135
vt 0.375000 0.323135
vt 0.301865 0.250000
vt 0.375000 0.323135
vt 0.301865 0.000000
vt 0.375000 0.926865
vt 0.375000 0.926865
vt 0.500000 0.926865
vt 0.625000 0.926865
vt 0.625000 0.926865
vt 0.698135 0.000000
vt 0.625000 0.323135
vt 0.698135 0.250000
vn -0.484026 0.000000 0.875054
vn -0.484026 0.000000 0.875054
vn -0.484026 0.000000 0.875054
vn -0.484026 0.000000 0.875054
vn -0.358351 0.933587 0.000000
vn -0.358351 0.933587 0.000000
vn -0.358351 0.933587 0.000000
vn -0.358351 0.933587 0.000000
vn 0.000000 0.000000 -1.000000
vn 0.000000 0.000000 -1.000000
vn 0.000000 0.000000 -1.000000
vn -0.358351 -0.933587 0.000000
vn -0.358351 -0.933587 0.000000
vn -0.358351 -0.933587 0.000000
vn -0.358351 -0.933587 0.000000
vn 1.000000 0.000000 0.000000
vn 1.000000 0.000000 0.000000
vn 1.000000 0.000000 0.000000
vn 1.000000 0.000000 0.000000
vn -1.000000 0.000000 0.000000
vn -1.000000 0.000000 0.000000
vn -1.000000 0.000000 0.000000
vn -1.000000 0.000000 0.000000
vn -0.164094 0.978522 0.124772
vn -0.164094 0.978522 0.124772
vn -0.164094 0.978522 0.124772
vn -0.805836 0.000000 0.592139
vn -0.805836 0.000000 0.592139
vn -0.805836 0.000000 0.592139
vn -0.805836 0.000000 0.592139
vn 0.805836 0.000000 0.592139
vn 0.805836 0.000000 0.592139
vn 0.805836 0.000000 0.592139
vn 0.805836 0.000000 0.592139
vn -0.183674 0.982987 0.000000
vn -0.183674 0.982987 0.000000
vn -0.183674 0.982987 0.000000
vn -0.183674 0.982987 0.000000
vn -1.000000 0.000000 0.000000
vn -1.000000 0.000000 0.000000
vn -1.000000 0.000000 0.000000
vn -1.000000 0.000000 0.000000
vn -0.293951 -0.955821 -0.000000
vn -0.293951 -0.955821 -0.000000
vn -0.293951 -0.955821 -0.000000
vn -0.293951 -0.955821 -0.000000
vn 1.000000 0.000000 0.000000
vn 1.000000 0.000000 0.000000
vn 1.000000 0.000000 0.000000
vn 1.000000 0.000000 0.000000
vn -0.134449 0.989620 -0.050756
vn -0.134449 0.989620 -0.050756
vn -0.134449 0.989620 -0.050756
vn -0.134449 0.989620 -0.050756
vn -0.798072 0.000000 -0.602562
vn -0.798072 0.000000 -0.602562
vn -0.798072 0.000000 -0.602562
vn -0.798072 0.000000 -0.602562
vn 0.798072 0.000000 -0.602562
vn 0.798072 0.000000 -0.602562
vn 0.798072 0.000000 -0.602562
vn 0.798072 0.000000 -0.602562
vn 0.010294 0.993265 0.115411
vn 0.010294 0.993265 0.115411
vn 0.010294 0.993265 0.115411
vn 0.010294 0.993265 0.115411
vn -1.000000 0.000000 0.000000
vn -1.000000 0.000000 0.000000
vn -1.000000 0.000000 0.000000
vn -1.000000 0.000000 0.000000
vn 1.000000 0.000000 0.000000
vn 1.000000 0.000000 0.000000
vn 1.000000 0.000000 0.000000
vn 1.000000 0.000000 0.000000
vn -0.322268 0.852287 0.412008
vn -0.322268 0.852287 0.412008
vn -0.322268 0.852287 0.412008
vn -0.322268 0.852287 0.412008
vn 0.777898 0.628390 0.000000
vn 0.777898 0.628390 0.000000
vn 0.777898 0.628390 0.000000
vn 0.777898 0.628390 0.000000
vn -0.186627 0.845741 -0.499893
vn -0.186627 0.845741 -0.499893
vn -0.186627 0.845741 -0.499893
vn -0.186627 0.845741 -0.499893
vn -0.777898 0.628390 0.000000
vn -0.777898 0.628390 0.000000
vn -0.777898 0.628390 0.000000
vn -0.777898 0.628390 0.000000
vn 0.777898 -0.628390 0.000000
vn 0.777898 -0.628390 0.000000
vn 0.777898 -0.628390 0.000000
vn 0.777898 -0.628390 0.000000
vn -0.322268 -0.852287 0.412008
vn -0.322268 -0.852287 0.412008
vn -0.322268 -0.852287 0.412008
vn -0.322268 -0.852287 0.412008
vn -0.777898 -0.628390 0.000000
vn -0.777898 -0.628390 0.000000
vn -0.777898 -0.628390 0.000000
vn -0.777898 -0.628390 0.000000
vn 0.000000 0.000000 -1.000000
vn 0.000000 0.000000 -1.000000
vn 0.000000 0.000000 -1.000000
vn 0.211130 -0.977458 0.000000
vn 0.211130 -0.977458 0.000000
vn 0.211130 -0.977458 0.000000
vn 0.211130 -0.977458 0.000000
vn 0.096972 -0.992590 -0.073216
vn 0.096972 -0.992590 -0.073216
vn 0.096972 -0.992590 -0.073216
vn 0.197712 -0.850041 -0.488201
vn 0.197712 -0.850041 -0.488201
vn 0.197712 -0.850041 -0.488201
vn 0.197712 -0.850041 -0.488201
vn 0.358351 -0.933587 0.000000
vn 0.358351 -0.933587 0.000000
vn 0.358351 -0.933587 0.000000
vn 0.358351 -0.933587 0.000000
vn 0.322268 -0.852287 0.412008
vn 0.322268 -0.852287 0.412008
vn 0.322268 -0.852287 0.412008
vn 0.322268 -0.852287 0.412008
vn 0.484026 0.000000 0.875054
vn 0.484026 0.000000 0.875054
vn 0.484026 0.000000 0.875054
vn 0.484026 0.000000 0.875054
vn 0.322268 0.852287 0.412008
vn 0.322268 0.852287 0.412008
vn 0.322268 0.852287 0.412008
vn 0.322268 0.852287 0.412008
vn 0.358351 0.933587 0.000000
vn 0.358351 0.933587 0.000000
vn 0.358351 0.933587 0.000000
vn 0.358351 0.933587 0.000000
vn 0.186627 0.845741 -0.499893
vn 0.186627 0.845741 -0.499893
vn 0.186627 0.845741 -0.499893
vn 0.186627 0.845741 -0.499893
vn 0.134449 0.989620 -0.050756
vn 0.134449 0.989620 -0.050756
vn 0.134449 0.989620 -0.050756
vn 0.134449 0.989620 -0.050756
vn 0.183674 0.982987 0.000000
vn 0.183674 0.982987 0.000000
vn 0.183674 0.982987 0.000000
vn 0.183674 0.982987 0.000000
vn 0.164094 0.978522 0.124771
vn 0.164094 0.978522 0.124771
vn 0.164094 0.978522 0.124771
vn -0.010294 0.993265 0.115411
vn -0.010294 0.993265 0.115411
vn -0.010294 0.993265 0.115411
vn -0.010294 0.993265 0.115411
vn 0.179996 0.975023 0.130120
vn 0.179996 0.975023 0.130120
vn 0.179996 0.975023 0.130120
vn 0.179996 0.975023 0.130120
vn 0.180138 0.983641 0.000000
vn 0.180138 0.983641 0.000000
vn 0.180138 0.983641 0.000000
vn 0.180138 0.983641 0.000000
vn 0.000000 0.000000 -1.000000
vn 0.000000 0.000000 -1.000000
vn 0.000000 0.000000 -1.000000
vn 0.000000 0.000000 -1.000000
vn 0.157476 -0.987523 0.000000
vn 0.157476 -0.987523 0.000000
vn 0.157476 -0.987523 0.000000
vn 0.157476 -0.987523 0.000000
vn 0.170791 -0.980151 0.100668
vn 0.170791 -0.980151 0.100668
vn 0.170791 -0.980151 0.100668
vn 0.170791 -0.980151 0.100668
vn -0.137433 -0.986491 0.089148
vn -0.137433 -0.986491 0.089148
vn -0.137433 -0.986491 0.089148
vn -0.157476 -0.987523 0.000000
vn -0.157476 -0.987523 0.000000
vn -0.157476 -0.987523 0.000000
vn -0.157476 -0.987523 0.000000
vn -0.000000 0.000000 -1.000000
vn -0.000000 0.000000 -1.000000
vn -0.000000 0.000000 -1.000000
vn -0.000000 0.000000 -1.000000
vn -0.180138 0.983641 -0.000000
vn -0.180138 0.983641 -0.000000
vn -0.180138 0.983641 -0.000000
vn -0.180138 0.983641 -0.000000
vn -0.179996 0.975023 0.130120
vn -0.179996 0.975023 0.130120
vn -0.179996 0.975023 0.130120
vn -0.179996 0.975023 0.130120
vn 0.000000 0.000000 -1.000000
vn 0.000000 0.000000 -1.000000
vn 0.000000 0.000000 -1.000000
vn 0.000000 0.000000 -1.000000
vn -1.000000 0.000000 -0.000000
vn -1.000000 0.000000 -0.000000
vn -1.000000 0.000000 -0.000000
vn -1.000000 0.000000 -0.000000
vn 1.000000 0.000000 0.000000
vn 1.000000 0.000000 0.000000
vn 1.000000 0.000000 0.000000
vn 1.000000 0.000000 0.000000
vn 0.000000 0.000000 -1.000000
vn 0.000000 0.000000 -1.000000
vn 0.000000 0.000000 -1.000000
vn 0.000000 0.000000 -1.000000
vn 0.000000 0.000000 -1.000000
vn 0.000000 0.000000 -1.000000
vn 0.000000 0.000000 -1.000000
vn 0.000000 0.000000 -1.000000
vn 0.000000 0.000000 -1.000000
vn 0.000000 0.000000 -1.000000
vn 0.000000 0.000000 -1.000000
vn 0.000000 0.000000 -1.000000
vn 1.000000 0.000000 0.000000
vn 1.000000 0.000000 0.000000
vn 1.000000 0.000000 0.000000
vn 1.000000 0.000000 0.000000
vn -1.000000 0.000000 -0.000000
vn -1.000000 0.000000 -0.000000
vn -1.000000 0.000000 -0.000000
vn -1.000000 0.000000 -0.000000
vn 0.000000 -0.734802 -0.678282
vn 0.000000 -0.734802 -0.678282
vn 0.000000 -0.734802 -0.678282
vn 0.000000 -0.734802 -0.678282
vn 0.000000 -0.734802 -0.678282
vn 0.000000 -0.734802 -0.678282
vn 0.000000 -0.734802 -0.678282
vn 0.000000 -0.734802 -0.678282
vn 0.000000 0.763385 -0.645944
vn 0.000000 0.763385 -0.645944
vn 0.000000 0.763385 -0.645944
vn 0.000000 0.763385 -0.645944
vn 0.000000 0.763385 -0.645944
vn 0.000000 0.763385 -0.645944
vn 0.000000 0.763385 -0.645944
vn 0.000000 0.763385 -0.645944
vn 1.000000 -0.000000 0.000000
vn 1.000000 -0.000000 0.000000
vn 1.000000 -0.000000 0.000000
vn 1.000000 -0.000000 0.000000
vn 0.771028 0.212542 0.600285
vn 0.771028 0.212542 0.600285
vn 0.771028 0.212542 0.600285
vn 0.771028 0.212542 0.600285
vn -0.771028 0.212542 0.600285
vn -0.771028 0.212542 0.600285
vn -0.771028 0.212542 0.600285
vn -0.771028 0.212542 0.600285
vn -1.000000 -0.000000 -0.000000
vn -1.000000 -0.000000 -0.000000
vn -1.000000 -0.000000 -0.000000
vn -1.000000 -0.000000 -0.000000
vn 0.000000 0.000000 -1.000000
vn 0.000000 0.000000 -1.000000
vn 0.000000 0.000000 -1.000000
vn 0.000000 0.000000 -1.000000
vn 0.000000 0.000000 -1.000000
vn 0.000000 0.000000 -1.000000
vn 0.000000 0.000000 -1.000000
vn 0.000000 0.000000 -1.000000
vn 0.293951 -0.955821 0.000000
vn 0.293951 -0.955821 0.000000
vn 0.293951 -0.955821 0.000000
vn 0.293951 -0.955821 0.000000
vn 0.137433 -0.986491 0.089148
vn 0.137433 -0.986491 0.089148
vn 0.137433 -0.986491 0.089148
vn -0.211130 -0.977458 0.000000
vn -0.211130 -0.977458 0.000000
vn -0.211130 -0.977458 0.000000
vn -0.211130 -0.977458 0.000000
vn -0.170791 -0.980151 0.100668
vn -0.170791 -0.980151 0.100668
vn -0.170791 -0.980151 0.100668
vn -0.170791 -0.980151 0.100668
vn -0.197712 -0.850041 -0.488201
vn -0.197712 -0.850041 -0.488201
vn -0.197712 -0.850041 -0.488201
vn -0.197712 -0.850041 -0.488201
vn -0.096972 -0.992590 -0.073216
vn -0.096972 -0.992590 -0.073216
vn -0.096972 -0.992590 -0.073216
vn -0.071075 -0.370659 -0.926046
vn -0.071075 -0.370659 -0.926046
vn -0.071075 -0.370659 -0.926046
vn -0.071075 -0.370659 -0.926046
vn -0.999493 -0.031849 0.000000
vn -0.999493 -0.031849 0.000000
vn -0.999493 -0.031849 0.000000
vn -0.999493 -0.031849 0.000000
vn -0.851624 0.149629 0.502342
vn -0.851624 0.149629 0.502342
vn -0.851624 0.149629 0.502342
vn -0.851624 0.149629 0.502342
vn 0.071077 -0.370659 -0.926045
vn 0.071077 -0.370659 -0.926045
vn 0.071077 -0.370659 -0.926045
vn 0.071077 -0.370659 -0.926045
vn 0.999493 -0.031849 -0.000000
vn 0.999493 -0.031849 -0.000000
vn 0.999493 -0.031849 -0.000000
vn 0.999493 -0.031849 -0.000000
vn 0.851624 0.149629 0.502343
vn 0.851624 0.149629 0.502343
vn 0.851624 0.149629 0.502343
vn 0.851624 0.149629 0.502343
vn 0.358351 0.933587 0.000000
vn 0.358351 0.933587 0.000000
vn 0.358351 0.933587 0.000000
vn 0.358351 0.933587 0.000000
vn -0.358351 0.933587 0.000000
vn -0.358351 0.933587 0.000000
vn -0.358351 0.933587 0.000000
vn -0.358351 0.933587 0.000000
vn -0.777898 0.628390 0.000000
vn -0.777898 0.628390 0.000000
vn -0.777898 0.628390 0.000000
vn -0.777898 0.628390 0.000000
vn -1.000000 0.000000 0.000000
vn -1.000000 0.000000 0.000000
vn -1.000000 0.000000 0.000000
vn -1.000000 0.000000 0.000000
vn -0.777898 -0.628390 0.000000
vn -0.777898 -0.628390 0.000000
vn -0.777898 -0.628390 0.000000
vn -0.777898 -0.628390 0.000000
vn -0.358351 -0.933587 0.000000
vn -0.358351 -0.933587 0.000000
vn -0.358351 -0.933587 0.000000
vn -0.358351 -0.933587 0.000000
vn 0.358351 -0.933587 0.000000
vn 0.358351 -0.933587 0.000000
vn 0.358351 -0.933587 0.000000
vn 0.358351 -0.933587 0.000000
vn 0.777898 -0.628390 0.000000
vn 0.777898 -0.628390 0.000000
vn 0.777898 -0.628390 0.000000
vn 0.777898 -0.628390 0.000000
vn 1.000000 0.000000 0.000000
vn 1.000000 0.000000 0.000000
vn 1.000000 0.000000 0.000000
vn 1.000000 0.000000 0.000000
vn 0.777898 0.628390 0.000000
vn 0.777898 0.628390 0.000000
vn 0.777898 0.628390 0.000000
vn 0.777898 0.628390 0.000000
s off
g pCube6
usemtl initialShadingGroup
f 1/1/1 39/62/2 40/64/3 3/3/4
f 25/47/5 41/65/6 80/103/7 81/104/8
f 49/73/9 33/55/10 34/56/11
f 84/109/12 85/110/13 38/61/14 32/54/15
f 2/2/16 87/113/17 88/115/18 4/4/19
f 83/107/20 1/1/21 3/3/22 82/105/23
f 50/74/24 45/69/25 46/70/26
f 23/43/27 11/19/28 10/17/29 22/41/30
f 9/16/31 12/22/32 24/46/33 21/40/34
f 14/26/35 44/68/36 45/69/37 10/18/38
f 11/19/39 15/27/40 14/25/41 10/17/42
f 73/97/43 74/98/44 75/59/45 76/99/46
f 13/24/47 16/30/48 12/22/49 9/16/50
f 18/34/51 43/67/52 44/68/53 14/26/54
f 15/27/55 19/35/56 18/33/57 14/25/58
f 17/32/59 20/38/60 16/30/61 13/24/62
f 52/75/63 51/76/64 53/77/65 54/78/66
f 7/13/67 23/43/68 22/41/69 5/14/70
f 21/40/71 24/46/72 8/11/73 6/12/74
f 3/3/75 40/64/76 41/65/77 25/47/78
f 4/4/79 88/114/80 79/102/81 26/48/82
f 43/67/83 18/34/84 28/50/85 42/66/86
f 82/106/87 3/3/88 25/47/89 81/104/90
f 87/112/91 2/10/92 31/53/93 86/111/94
f 39/63/95 1/9/96 32/54/97 38/61/98
f 1/9/99 83/108/100 84/109/101 32/54/102
f 33/55/103 48/72/104 34/56/105
f 69/93/106 70/94/107 12/21/108 16/29/109
f 69/93/110 16/29/111 20/37/112
f 37/60/113 69/93/114 20/37/115 30/52/116
f 38/61/117 85/110/118 86/111/119 31/53/120
f 2/10/121 39/63/122 38/61/123 31/53/124
f 40/64/125 39/62/126 2/2/127 4/4/128
f 41/65/129 40/64/130 4/4/131 26/48/132
f 80/103/133 41/65/134 26/48/135 79/102/136
f 17/31/137 43/67/138 42/66/139 27/49/140
f 44/68/141 43/67/142 17/31/143 13/23/144
f 45/69/145 44/68/146 13/23/147 9/15/148
f 46/70/149 45/69/150 47/71/151
f 53/77/152 51/76/153 55/79/154 56/80/155
f 47/71/156 45/69/157 9/15/158 21/39/159
f 48/72/160 47/71/161 21/39/162 6/6/163
f 34/56/164 48/72/165 6/6/166 8/8/167
f 35/57/168 34/56/169 8/8/170 24/45/171
f 70/94/172 35/57/173 24/45/174 12/21/175
f 72/96/176 35/57/177 36/58/178
f 7/7/179 34/56/180 35/57/181 23/44/182
f 5/5/183 49/73/184 34/56/185 7/7/186
f 22/42/187 50/74/188 49/73/189 5/5/190
f 10/18/191 45/69/192 50/74/193 22/42/194
f 33/55/195 49/73/196 64/88/197 65/89/198
f 64/88/199 49/73/200 50/74/201 67/91/202
f 47/71/203 48/72/204 63/87/205 66/90/206
f 48/72/207 33/55/208 65/89/209 63/87/210
f 59/83/211 58/82/212 54/78/213 53/77/214
f 57/81/215 59/83/216 53/77/217 56/80/218
f 55/79/219 60/84/220 57/81/221 56/80/222
f 58/82/223 61/85/224 52/75/225 54/78/226
f 62/86/227 61/85/228 58/82/229 59/83/230
f 60/84/231 62/86/232 59/83/233 57/81/234
f 65/89/235 64/88/236 67/91/237 68/92/238
f 63/87/239 65/89/240 68/92/241 66/90/242
f 47/71/243 66/90/244 60/84/245 55/79/246
f 46/70/247 47/71/248 55/79/249 51/76/250
f 50/74/251 46/70/252 51/76/253 52/75/254
f 67/91/255 50/74/256 52/75/257 61/85/258
f 68/92/259 67/91/260 61/85/261 62/86/262
f 66/90/263 68/92/264 62/86/265 60/84/266
f 75/59/267 74/98/268 77/100/269 78/101/270
f 36/58/271 35/57/272 70/94/273
f 11/20/274 72/96/275 71/95/276 15/28/277
f 23/44/278 35/57/279 72/96/280 11/20/281
f 19/36/282 71/95/283 37/60/284 29/51/285
f 71/95/286 19/36/287 15/28/288
f 72/96/289 36/58/290 74/98/291 73/97/292
f 71/95/293 72/96/294 73/97/295 76/99/296
f 37/60/297 71/95/298 76/99/299 75/59/300
f 36/58/301 70/94/302 77/100/303 74/98/304
f 70/94/305 69/93/306 78/101/307 77/100/308
f 69/93/309 37/60/310 75/59/311 78/101/312
f 42/66/313 80/103/314 79/102/315 27/49/316
f 81/104/317 80/103/318 42/66/319 28/50/320
f 18/34/321 82/106/322 81/104/323 28/50/324
f 19/35/325 83/107/326 82/105/327 18/33/328
f 84/109/329 83/108/330 19/36/331 29/51/332
f 29/51/333 37/60/334 85/110/335 84/109/336
f 86/111/337 85/110/338 37/60/339 30/52/340
f 20/37/341 87/112/342 86/111/343 30/52/344
f 88/115/345 87/113/346 20/38/347 17/32/348
f 79/102/349 88/114/350 17/31/351 27/49/352
